<svg xmlns="http://www.w3.org/2000/svg" width="387" height="273" viewBox="0 0 387 273" fill="none">
  <defs>
    <linearGradient id="classicGrad" x1="0" y1="150" x2="387" y2="68" gradientUnits="userSpaceOnUse">
      <stop offset="0" stop-color="#ff3bd4"/>
      <stop offset="0.52" stop-color="#9b6bff"/>
      <stop offset="1" stop-color="#4cecff"/>
    </linearGradient>
  </defs>
  <path d="M 114 202 L 114 240 L 116 240 L 116 202 Z M 285 93 L 286 96 L 294 95 L 303 97 L 303 95 L 300 93 L 295 92 Z M 179 97 L 187 94 L 195 95 L 195 92 L 185 91 L 179 95 Z M 78 90 L 78 92 L 82 94 L 87 95 L 94 94 L 94 92 L 85 92 L 81 90 Z M 292 68 L 290 68 L 284 80 L 284 83 L 287 86 L 291 86 L 291 84 L 288 82 L 288 79 L 292 72 Z M 218 75 L 214 73 L 206 73 L 191 80 L 185 81 L 184 80 L 184 71 L 182 68 L 177 68 L 175 76 L 169 86 L 168 102 L 147 140 L 142 139 L 140 137 L 129 132 L 124 128 L 108 120 L 96 117 L 89 117 L 89 119 L 105 122 L 122 130 L 143 142 L 145 144 L 145 148 L 148 149 L 153 134 L 170 105 L 171 91 L 178 76 L 181 77 L 180 81 L 181 85 L 189 84 L 207 76 L 212 76 L 218 80 L 218 84 L 216 87 L 216 90 L 213 93 L 205 98 L 193 103 L 187 104 L 182 107 L 177 128 L 169 153 L 164 164 L 161 167 L 161 169 L 163 169 L 166 166 L 172 153 L 181 124 L 184 110 L 188 107 L 196 105 L 211 98 L 219 91 L 222 80 Z M 304 67 L 303 71 L 306 72 L 307 68 Z M 91 67 L 91 70 L 95 77 L 95 79 L 92 81 L 92 83 L 95 83 L 98 81 L 98 76 L 93 67 Z M 282 65 L 282 69 L 285 69 L 285 65 Z M 76 65 L 76 69 L 79 69 L 79 66 Z M 98 62 L 97 65 L 100 66 L 100 62 Z M 300 58 L 300 60 L 311 59 L 316 61 L 316 59 L 312 56 L 303 56 Z M 66 60 L 68 60 L 70 58 L 81 58 L 81 56 L 71 55 L 68 56 L 66 58 Z M 304 23 L 289 30 L 284 35 L 278 46 L 275 62 L 275 69 L 274 70 L 274 83 L 277 95 L 280 95 L 277 82 L 279 59 L 283 58 L 287 60 L 290 60 L 289 57 L 280 54 L 281 47 L 285 39 L 293 31 L 305 26 L 320 26 L 328 28 L 337 33 L 343 39 L 346 44 L 349 56 L 349 63 L 347 73 L 333 97 L 332 108 L 335 116 L 342 123 L 359 133 L 366 141 L 368 148 L 367 161 L 357 182 L 348 197 L 337 212 L 325 224 L 319 227 L 312 226 L 305 219 L 302 214 L 297 200 L 292 176 L 288 147 L 286 143 L 275 134 L 272 129 L 272 126 L 274 124 L 274 121 L 277 118 L 277 116 L 282 115 L 282 113 L 276 106 L 277 103 L 279 103 L 291 115 L 296 115 L 300 110 L 303 111 L 302 131 L 300 135 L 300 143 L 307 161 L 315 176 L 320 189 L 321 195 L 323 195 L 322 184 L 329 170 L 338 157 L 338 154 L 336 154 L 332 159 L 323 177 L 319 178 L 312 165 L 303 142 L 303 136 L 305 131 L 304 122 L 306 113 L 315 111 L 323 104 L 323 101 L 321 101 L 312 109 L 309 108 L 309 106 L 306 102 L 303 102 L 297 107 L 294 112 L 292 112 L 281 100 L 274 99 L 272 101 L 272 106 L 275 110 L 275 114 L 272 118 L 269 126 L 269 131 L 271 133 L 271 136 L 267 137 L 265 140 L 258 158 L 258 161 L 249 189 L 247 199 L 247 211 L 249 216 L 253 220 L 257 222 L 270 223 L 271 224 L 271 241 L 273 241 L 274 224 L 278 222 L 285 222 L 301 219 L 308 227 L 315 230 L 322 229 L 329 224 L 337 225 L 341 223 L 346 217 L 347 210 L 351 209 L 350 198 L 355 190 L 358 189 L 359 193 L 355 210 L 354 224 L 353 225 L 353 237 L 352 238 L 352 240 L 355 241 L 355 232 L 356 231 L 356 223 L 357 222 L 359 203 L 363 188 L 366 169 L 370 160 L 371 149 L 367 137 L 361 131 L 344 121 L 337 114 L 335 108 L 335 102 L 337 95 L 345 84 L 351 70 L 352 65 L 351 49 L 348 41 L 343 34 L 335 28 L 322 23 L 316 23 L 315 22 Z M 335 219 L 338 218 L 339 221 L 336 222 Z M 341 212 L 344 213 L 344 215 L 342 217 L 339 216 L 339 214 Z M 345 206 L 348 205 L 349 208 L 346 209 Z M 271 136 L 273 136 L 279 141 L 285 148 L 287 165 L 292 188 L 292 194 L 291 195 L 284 195 L 275 193 L 276 167 L 274 167 L 272 175 L 272 192 L 270 194 L 265 194 L 265 197 L 283 197 L 293 199 L 295 201 L 299 213 L 298 217 L 280 219 L 279 220 L 261 220 L 255 218 L 251 214 L 250 211 L 250 197 L 262 155 Z M 80 22 L 75 22 L 74 21 L 59 22 L 45 28 L 36 37 L 31 50 L 31 67 L 37 82 L 46 95 L 47 108 L 42 117 L 21 130 L 14 137 L 11 142 L 9 149 L 9 156 L 13 171 L 22 189 L 28 198 L 28 201 L 26 202 L 26 206 L 29 220 L 29 238 L 30 241 L 32 241 L 31 215 L 29 209 L 30 205 L 32 205 L 36 211 L 40 214 L 40 216 L 44 219 L 44 221 L 50 227 L 58 231 L 65 231 L 74 227 L 86 219 L 125 185 L 138 188 L 149 189 L 155 186 L 171 184 L 173 182 L 173 179 L 170 176 L 156 174 L 145 170 L 136 165 L 135 160 L 138 154 L 138 148 L 136 146 L 132 146 L 129 151 L 118 163 L 115 164 L 113 158 L 112 146 L 110 146 L 111 165 L 115 166 L 115 170 L 86 184 L 84 184 L 68 193 L 65 192 L 52 165 L 48 159 L 45 158 L 46 162 L 53 172 L 63 193 L 63 196 L 60 199 L 60 201 L 62 201 L 74 192 L 112 175 L 115 171 L 117 171 L 121 163 L 132 152 L 134 152 L 135 155 L 131 162 L 131 164 L 135 168 L 154 176 L 167 178 L 168 181 L 162 183 L 156 183 L 150 186 L 142 186 L 131 183 L 122 183 L 84 217 L 72 225 L 62 229 L 55 227 L 44 218 L 44 216 L 40 213 L 40 211 L 28 194 L 15 169 L 12 158 L 12 148 L 16 139 L 23 132 L 39 123 L 47 115 L 50 107 L 50 101 L 48 93 L 38 78 L 34 68 L 34 49 L 39 38 L 47 30 L 55 26 L 63 24 L 76 24 L 89 29 L 97 37 L 101 45 L 101 49 L 94 53 L 94 55 L 101 53 L 103 55 L 104 66 L 105 67 L 105 83 L 102 96 L 99 103 L 94 108 L 91 109 L 82 109 L 67 103 L 68 106 L 81 112 L 81 124 L 84 124 L 84 113 L 97 109 L 101 105 L 106 92 L 107 82 L 108 81 L 108 70 L 107 69 L 105 49 L 103 43 L 96 31 L 89 26 Z" fill="url(#classicGrad)" fill-rule="evenodd" clip-rule="evenodd"/>
</svg>