<svg xmlns="http://www.w3.org/2000/svg" width="411" height="267" viewBox="0 26 411 214" fill="none">
  <defs>
    <linearGradient id="teamGrad" x1="0" y1="147" x2="411" y2="67" gradientUnits="userSpaceOnUse">
      <stop offset="0" stop-color="#ff3bd4"/>
      <stop offset="0.52" stop-color="#9b6bff"/>
      <stop offset="1" stop-color="#4cecff"/>
    </linearGradient>
  </defs>
  <text x="199.5" y="142" text-anchor="middle" fill="url(#teamGrad)" opacity="0.64" font-size="28" font-family="Space Grotesk, Arial, sans-serif" font-weight="700" letter-spacing="2">VS</text>
  <path d="M 346 237 L 346 243 L 349 244 L 349 237 Z M 65 235 L 64 236 L 64 243 L 67 243 L 67 235 Z M 150 230 L 150 243 L 153 243 L 153 231 Z M 81 223 L 83 243 L 85 243 L 84 225 L 83 223 Z M 82 212 L 85 219 L 88 222 L 90 222 L 90 220 L 85 213 Z M 148 172 L 149 184 L 152 185 L 151 174 L 150 172 Z M 70 156 L 68 156 L 65 163 L 64 175 L 67 174 L 67 165 L 70 159 Z M 162 199 L 159 197 L 159 195 L 154 190 L 149 188 L 140 189 L 125 195 L 121 195 L 113 189 L 107 187 L 107 189 L 116 195 L 116 197 L 114 199 L 107 201 L 106 196 L 103 196 L 102 192 L 99 192 L 98 189 L 96 188 L 96 186 L 105 182 L 108 179 L 109 169 L 107 165 L 107 160 L 118 154 L 121 151 L 121 147 L 116 145 L 93 156 L 91 156 L 90 155 L 90 149 L 87 144 L 84 144 L 82 146 L 75 160 L 74 171 L 72 177 L 51 200 L 47 199 L 38 181 L 30 169 L 25 166 L 20 165 L 21 168 L 23 168 L 29 172 L 35 181 L 47 205 L 50 206 L 75 178 L 77 164 L 84 150 L 87 151 L 86 161 L 89 161 L 110 150 L 113 151 L 113 153 L 111 155 L 107 156 L 101 160 L 101 162 L 103 162 L 105 164 L 106 177 L 99 182 L 88 185 L 83 190 L 73 209 L 61 226 L 55 232 L 51 234 L 45 234 L 38 230 L 27 219 L 27 217 L 17 204 L 14 198 L 11 197 L 11 199 L 23 217 L 27 220 L 27 222 L 31 225 L 31 227 L 36 232 L 46 237 L 50 237 L 57 234 L 64 227 L 75 211 L 85 192 L 93 186 L 95 186 L 96 189 L 88 195 L 89 201 L 93 205 L 100 207 L 104 207 L 122 198 L 144 191 L 152 192 L 156 196 L 155 199 L 152 199 L 146 202 L 129 216 L 127 219 L 125 219 L 110 228 L 103 229 L 97 227 L 94 224 L 92 224 L 92 226 L 94 228 L 100 231 L 109 231 L 118 227 L 126 222 L 128 219 L 135 216 L 137 213 L 148 204 L 155 201 L 162 201 Z M 359 132 L 357 132 L 351 139 L 339 144 L 335 144 L 332 141 L 330 135 L 328 135 L 329 143 L 332 146 L 339 147 L 347 145 L 350 149 L 351 157 L 354 158 L 354 160 L 349 165 L 345 173 L 336 197 L 334 199 L 332 199 L 316 181 L 316 178 L 320 171 L 320 162 L 315 155 L 310 155 L 309 154 L 307 142 L 304 136 L 300 136 L 297 139 L 298 153 L 291 156 L 284 163 L 285 170 L 288 178 L 299 190 L 313 217 L 319 226 L 325 232 L 332 236 L 342 235 L 347 232 L 355 224 L 372 200 L 376 193 L 376 190 L 374 190 L 370 198 L 353 222 L 346 229 L 340 233 L 334 234 L 327 230 L 315 215 L 302 189 L 291 177 L 288 169 L 288 164 L 293 159 L 296 159 L 297 157 L 301 157 L 301 149 L 304 148 L 309 164 L 311 164 L 312 160 L 314 160 L 317 164 L 317 170 L 313 178 L 314 183 L 334 206 L 336 206 L 337 200 L 348 173 L 352 166 L 358 160 L 366 157 L 366 155 L 361 155 L 358 157 L 354 156 L 354 151 L 351 143 L 357 138 L 359 135 Z M 300 145 L 303 144 L 304 147 L 301 148 Z M 129 110 L 129 112 L 135 117 L 139 119 L 144 119 L 144 117 L 137 115 L 132 109 Z M 276 110 L 274 108 L 268 108 L 256 116 L 256 118 L 261 119 L 273 118 L 276 115 Z M 266 115 L 266 113 L 268 111 L 273 112 L 272 115 L 269 116 Z M 332 106 L 332 110 L 335 110 L 336 107 Z M 131 83 L 131 85 L 142 90 L 141 93 L 138 93 L 138 97 L 143 97 L 142 91 L 147 90 L 148 87 L 142 87 L 135 83 Z M 268 81 L 265 81 L 256 86 L 253 86 L 253 89 L 258 89 L 259 90 L 259 96 L 260 97 L 264 96 L 264 92 L 261 91 L 260 88 L 268 84 Z M 56 72 L 40 72 L 32 75 L 21 85 L 17 95 L 17 110 L 20 119 L 25 128 L 25 138 L 21 146 L 7 159 L 3 167 L 2 173 L 0 174 L 0 195 L 2 196 L 2 204 L 3 205 L 3 212 L 4 213 L 5 228 L 6 229 L 6 242 L 9 242 L 9 235 L 8 234 L 7 214 L 4 199 L 4 185 L 3 184 L 4 173 L 9 161 L 24 147 L 28 138 L 28 128 L 21 114 L 19 104 L 20 95 L 23 88 L 33 78 L 40 75 L 51 74 L 62 77 L 68 81 L 74 89 L 76 96 L 76 104 L 75 105 L 73 105 L 71 102 L 67 100 L 59 99 L 59 101 L 64 102 L 69 105 L 69 107 L 66 109 L 66 112 L 69 112 L 69 106 L 70 105 L 74 105 L 80 118 L 80 122 L 75 124 L 75 127 L 73 131 L 69 131 L 62 128 L 63 131 L 72 135 L 72 139 L 68 145 L 61 145 L 55 143 L 47 138 L 45 138 L 45 140 L 51 144 L 51 147 L 48 152 L 47 159 L 56 176 L 57 183 L 59 183 L 59 178 L 57 172 L 51 162 L 50 158 L 51 152 L 55 146 L 62 148 L 70 147 L 74 141 L 77 128 L 84 123 L 84 119 L 79 110 L 79 98 L 78 97 L 78 92 L 75 85 L 69 78 Z M 339 72 L 332 76 L 326 83 L 326 86 L 324 88 L 322 97 L 323 106 L 318 115 L 317 121 L 322 124 L 325 129 L 329 129 L 335 126 L 342 127 L 342 125 L 340 123 L 335 123 L 331 125 L 328 125 L 326 122 L 321 120 L 321 117 L 326 108 L 326 103 L 327 102 L 332 102 L 338 98 L 341 98 L 341 95 L 336 95 L 328 101 L 325 100 L 325 96 L 328 86 L 338 76 L 346 73 L 362 73 L 372 78 L 378 84 L 382 93 L 383 103 L 380 115 L 374 126 L 374 137 L 378 147 L 388 160 L 394 175 L 400 207 L 401 223 L 403 232 L 403 242 L 404 244 L 406 244 L 405 224 L 404 223 L 404 216 L 403 215 L 403 209 L 402 208 L 402 202 L 401 201 L 401 195 L 398 179 L 394 166 L 389 156 L 381 146 L 377 136 L 377 127 L 385 110 L 385 93 L 383 87 L 377 78 L 372 74 L 363 70 L 350 69 Z M 109 56 L 97 65 L 91 78 L 91 95 L 100 115 L 100 128 L 98 133 L 93 139 L 93 141 L 95 141 L 99 137 L 103 127 L 102 112 L 96 101 L 93 88 L 94 78 L 98 69 L 106 61 L 114 57 L 128 56 L 140 60 L 148 67 L 152 75 L 153 79 L 152 97 L 156 105 L 156 109 L 151 111 L 148 123 L 145 129 L 141 132 L 132 132 L 126 130 L 117 123 L 115 123 L 115 125 L 127 134 L 127 140 L 130 144 L 144 149 L 152 154 L 158 163 L 166 179 L 176 204 L 177 209 L 176 216 L 170 221 L 157 222 L 156 221 L 145 220 L 140 218 L 137 218 L 137 220 L 159 225 L 171 224 L 178 218 L 179 215 L 179 204 L 172 185 L 155 153 L 149 148 L 137 144 L 130 140 L 131 135 L 142 135 L 147 131 L 150 125 L 153 115 L 160 110 L 159 103 L 155 96 L 155 88 L 156 87 L 155 74 L 151 66 L 144 59 L 139 56 L 127 53 L 121 53 Z M 284 52 L 272 52 L 259 57 L 250 65 L 246 73 L 245 77 L 246 96 L 241 105 L 241 108 L 242 110 L 245 111 L 248 114 L 251 125 L 256 132 L 260 134 L 273 133 L 275 136 L 275 139 L 262 147 L 255 154 L 252 160 L 246 181 L 244 184 L 242 184 L 234 172 L 234 166 L 239 163 L 240 159 L 244 155 L 247 149 L 246 142 L 241 137 L 233 133 L 228 132 L 220 140 L 215 149 L 216 170 L 223 198 L 230 215 L 237 224 L 243 227 L 249 227 L 253 225 L 261 216 L 263 216 L 265 220 L 265 244 L 267 244 L 268 242 L 268 223 L 267 222 L 267 210 L 265 202 L 265 187 L 264 186 L 265 174 L 262 173 L 262 179 L 261 180 L 263 206 L 258 215 L 252 222 L 249 224 L 243 224 L 236 219 L 232 213 L 227 201 L 219 169 L 218 151 L 222 142 L 228 136 L 232 136 L 236 139 L 235 151 L 232 152 L 232 155 L 236 155 L 237 160 L 231 164 L 231 172 L 235 180 L 244 192 L 248 202 L 250 202 L 250 197 L 246 190 L 246 188 L 251 176 L 255 161 L 260 153 L 274 143 L 276 143 L 278 146 L 280 146 L 280 141 L 277 132 L 287 123 L 287 120 L 285 120 L 278 127 L 269 131 L 260 131 L 255 126 L 250 109 L 245 107 L 245 104 L 249 97 L 248 79 L 252 68 L 260 60 L 269 56 L 276 56 L 277 55 L 286 56 L 295 60 L 302 67 L 305 72 L 307 79 L 307 91 L 298 114 L 299 122 L 301 128 L 305 134 L 307 134 L 317 140 L 322 141 L 322 138 L 310 133 L 305 128 L 302 122 L 302 111 L 308 99 L 310 91 L 310 78 L 308 71 L 304 64 L 299 59 Z" fill="url(#teamGrad)" fill-rule="evenodd" clip-rule="evenodd"/>
</svg>





